Coordinates
version=1
nRows=24
nColumns=22
inDegrees=yes

Units are S.I. units (second, meters, Newtons, ...)
If the header above contains a line with 'inDegrees', this indicates whether rotational values are in degrees (yes) or radians (no).

endheader
time	pelvis_tilt	pelvis_list	pelvis_rotation	pelvis_tx	pelvis_ty	pelvis_tz	hip_flexion_r	hip_adduction_r	hip_rotation_r	knee_angle_r	ankle_angle_r	subtalar_angle_r	hip_flexion_l	hip_adduction_l	hip_rotation_l	knee_angle_l	ankle_angle_l	subtalar_angle_l	lumbar_extension	lumbar_bending	lumbar_rotation
      2.16000000	      4.02919431	     -6.67954947	     37.16572613	      0.48780721	      1.01129754	      0.66783379	      6.89574829	      9.17828860	     -8.53786127	    -15.77496799	      9.08029485	     -2.77702892	     20.48269576	     -9.00955008	     -2.03369458	    -51.62273406	      8.82824989	      3.32543233	    -16.29472600	      9.74576981	     10.21512293
      2.17000000	      4.16667062	     -6.53268472	     37.79464955	      0.49118885	      1.01160529	      0.66451701	      6.23212610	      9.13213453	     -8.98269211	    -15.43360954	      9.29474302	     -2.76798653	     20.99181673	     -9.03822257	     -2.40235719	    -50.49394733	      8.94494809	      3.45321913	    -16.49387061	      9.70640797	     10.35825769
      2.18000000	      4.31382563	     -6.38170669	     38.42855546	      0.49457677	      1.01186928	      0.66113035	      5.55887524	      9.09768483	     -9.43280680	    -15.10311246	      9.51939112	     -2.75665120	     21.44906172	     -9.07757356	     -2.82984932	    -49.26307326	      9.06600168	      3.55152370	    -16.69967716	      9.67072861	     10.49457711
      2.19000000	      4.46417109	     -6.23396169	     39.04811920	      0.49798249	      1.01208598	      0.65770826	      4.88633726	      9.07944857	     -9.87339597	    -14.77988580	      9.73900087	     -2.74138712	     21.86144088	     -9.13803936	     -3.34293723	    -47.93744226	      9.17780024	      3.62192186	    -16.91049368	      9.63554004	     10.62531620
      2.20000000	      4.60865632	     -6.09313204	     39.66263373	      0.50140551	      1.01223588	      0.65423105	      4.22525564	      9.07364041	    -10.31013108	    -14.46626622	      9.96749434	     -2.72290879	     22.24052330	     -9.20316929	     -3.91625065	    -46.52503520	      9.27784828	      3.67047270	    -17.10711916	      9.59848691	     10.75508093
      2.21000000	      4.74952453	     -5.96057820	     40.26482304	      0.50484976	      1.01231428	      0.65069495	      3.57761868	      9.08071026	    -10.73700900	    -14.16944043	     10.19836050	     -2.69378839	     22.58837565	     -9.28028388	     -4.57037547	    -45.04319549	      9.36932694	      3.70982040	    -17.29612218	      9.56236309	     10.88028294
      2.22000000	      4.88714597	     -5.83592812	     40.85531352	      0.50831931	      1.01233044	      0.64708787	      2.94138250	      9.10084817	    -11.15546350	    -13.88688137	     10.42774380	     -2.64556258	     22.90084883	     -9.36243880	     -5.29921707	    -43.49330128	      9.43857859	      3.74808297	    -17.47301162	      9.52857508	     10.99415692
      2.23000000	      5.02922978	     -5.70729906	     41.43754720	      0.51180209	      1.01230173	      0.64339090	      2.29487028	      9.12850948	    -11.55655473	    -13.60455772	     10.64915597	     -2.56590023	     23.16742185	     -9.44163583	     -6.10295993	    -41.89042356	      9.46960505	      3.78846135	    -17.65583470	      9.49512025	     11.09021783
      2.24000000	      5.17112240	     -5.58763116	     42.01108956	      0.51529695	      1.01220888	      0.63960451	      1.65031757	      9.17244966	    -11.93285943	    -13.32167956	     10.86543351	     -2.45541944	     23.40324029	     -9.51627440	     -6.96254073	    -40.24507560	      9.45594552	      3.82901377	    -17.82790549	      9.46885176	     11.17072753
      2.25000000	      5.29993512	     -5.47719198	     42.57363738	      0.51877653	      1.01203051	      0.63571932	      1.03207385	      9.21570739	    -12.31204884	    -13.06401782	     11.09374410	     -2.33555499	     23.62116214	     -9.57024303	     -7.86855163	    -38.56856928	      9.39610860	      3.86731737	    -17.98068172	      9.44302890	     11.24438510
      2.26000000	      5.43610394	     -5.36483109	     43.12727408	      0.52226865	      1.01180521	      0.63172844	      0.39751501	      9.26916262	    -12.66533003	    -12.80184325	     11.31669367	     -2.19647653	     23.79786709	     -9.60848198	     -8.81360701	    -36.87370999	      9.27846266	      3.90141838	    -18.13423594	      9.41918966	     11.30782797
      2.27000000	      5.56792621	     -5.25882554	     43.66415202	      0.52574183	      1.01151140	      0.62764222	     -0.22935038	      9.32617394	    -13.00462837	    -12.54770922	     11.53834588	     -2.05143308	     23.95189953	     -9.62699354	     -9.79510391	    -35.17210488	      9.10876165	      3.93249254	    -18.28015782	      9.40292506	     11.35889984
      2.28000000	      5.70269898	     -5.15643522	     44.18711147	      0.52924667	      1.01115362	      0.62344721	     -0.86645649	      9.39287366	    -13.32487925	    -12.29034531	     11.75540128	     -1.89745995	     24.07601912	     -9.62887623	    -10.80028973	    -33.47793132	      8.90545723	      3.96474590	    -18.41542172	      9.38881232	     11.40665037
      2.29000000	      5.86468806	     -5.05097721	     44.69608955	      0.53276456	      1.01076437	      0.61914089	     -1.54557006	      9.48302209	    -13.61989505	    -12.00930258	     11.95964123	     -1.70751979	     24.15396008	     -9.63025753	    -11.83196427	    -31.81091568	      8.71927965	      4.00433625	    -18.57389657	      9.39921716	     11.43025183
      2.30000000	      5.97966545	     -4.96834822	     45.17590561	      0.53630447	      1.01024277	      0.61475342	     -2.15945949	      9.55205782	    -13.92029006	    -11.76578333	     12.17497552	     -1.54861488	     24.25316937	     -9.58764049	    -12.85650691	    -30.16467024	      8.48398029	      4.06035726	    -18.66478574	      9.38339543	     11.48432590
      2.31000000	      6.13280491	     -4.87784333	     45.63975092	      0.53989169	      1.00970557	      0.61024089	     -2.83098543	      9.64956346	    -14.19689576	    -11.49549552	     12.37504251	     -1.34441297	     24.29736638	     -9.55367864	    -13.89623444	    -28.57439767	      8.31983400	      4.14194341	    -18.78522602	      9.39207998	     11.51805793
      2.32000000	      6.29351269	     -4.79642872	     46.08409439	      0.54351745	      1.00910165	      0.60562663	     -3.50865885	      9.76132572	    -14.45667718	    -11.22552750	     12.57540619	     -1.11031824	     24.32408478	     -9.51450437	    -14.91779130	    -27.04769327	      8.21800281	      4.25628581	    -18.89788901	      9.40954193	     11.54641638
      2.33000000	      6.46293943	     -4.72636971	     46.50893912	      0.54719179	      1.00843061	      0.60089227	     -4.18780165	      9.88829772	    -14.69894621	    -10.96499539	     12.77510037	     -0.85031284	     24.33683416	     -9.47614836	    -15.91441810	    -25.60298916	      8.18087292	      4.40297821	    -18.99600126	      9.43842028	     11.56748413
      2.34000000	      6.64045200	     -4.66656752	     46.91227246	      0.55091406	      1.00769537	      0.59604214	     -4.86601957	     10.02778654	    -14.92041231	    -10.71960899	     12.97801079	     -0.56362403	     24.33665924	     -9.44065473	    -16.87713155	    -24.25495643	      8.19448084	      4.57708037	    -19.08243372	      9.47649510	     11.58128611
      2.35000000	      6.81963889	     -4.61831227	     47.29049934	      0.55468895	      1.00688870	      0.59107430	     -5.52899362	     10.17200745	    -15.12843798	    -10.50638449	     13.18793488	     -0.26316640	     24.32953543	     -9.40970888	    -17.80890056	    -23.02054229	      8.23909594	      4.76101118	    -19.14826271	      9.51673474	     11.58820287
      2.36000000	      7.00310351	     -4.57842297	     47.64085412	      0.55850766	      1.00602184	      0.58600490	     -6.17703941	     10.31844786	    -15.31561448	    -10.33013303	     13.40590677	      0.05519890	     24.31133069	     -9.38728337	    -18.69640422	    -21.91290704	      8.29096828	      4.94524065	    -19.20315515	      9.55826918	     11.59406256
      2.37000000	      7.18634130	     -4.54813735	     47.96293317	      0.56237883	      1.00508706	      0.58081987	     -6.79776351	     10.46134788	    -15.48583602	    -10.21054049	     13.63572453	      0.37960805	     24.28546885	     -9.37548711	    -19.54991632	    -20.94971627	      8.33803016	      5.11043375	    -19.23678793	      9.59752456	     11.59691655
      2.38000000	      7.37178396	     -4.52293518	     48.25116758	      0.56629413	      1.00409353	      0.57553332	     -7.38226722	     10.59377244	    -15.63649762	    -10.17519137	     13.88176574	      0.70297239	     24.24523709	     -9.37931075	    -20.37431539	    -20.14496783	      8.37838309	      5.24042013	    -19.25808591	      9.63293866	     11.59603156
      2.39000000	      7.56169320	     -4.49397619	     48.51967230	      0.57026224	      1.00307131	      0.57011330	     -7.96503905	     10.71786700	    -15.75568241	    -10.17252577	     14.11481737	      1.07812811	     24.17600823	     -9.38671541	    -21.12373341	    -19.49747478	      8.36829270	      5.34230227	    -19.26789446	      9.65775527	     11.59535433
